<svg xmlns="http://www.w3.org/2000/svg" width="36" height="28" viewBox="0 0 36 28">
  <path id="Pfad_38" data-name="Pfad 38" d="M37,2a1,1,0,0,0-.372.073L26,6h0L15.25,2.205a4,4,0,0,0-2.5-.009L3.258,5.5A2,2,0,0,0,2,7.354V29a1,1,0,0,0,1.372.929L14,26l10.75,3.794a4.019,4.019,0,0,0,2.5.009l9.489-3.3A2,2,0,0,0,38,24.646V3A1,1,0,0,0,37,2ZM16,5.651l8,2.824V26.349l-8-2.824ZM5,26.128V8.067l8-2.783V23.171l-.04.014Zm30-2.2-8,2.783V8.829l.04-.015L35,5.872Z" transform="translate(-2 -2)" fill="#efefef"/>
</svg>
