<svg xmlns="http://www.w3.org/2000/svg" width="32" height="32" viewBox="0 0 32 32">
  <path id="Pfad_37" data-name="Pfad 37" d="M34.912,10.282c-.294-.243-6.983-5.622-8.453-6.791C25.077,2.387,22.715,0,20,0s-5.04,2.357-6.458,3.491c-1.529,1.216-8.192,6.575-8.447,6.784A2.991,2.991,0,0,0,4,12.593V29a3,3,0,0,0,3,3H33a3,3,0,0,0,3-3V12.594A2.991,2.991,0,0,0,34.912,10.282ZM33,28.625a.375.375,0,0,1-.375.375H7.375A.375.375,0,0,1,7,28.625V12.772a.375.375,0,0,1,.139-.292c.992-.8,6.8-5.472,8.273-6.643C16.547,4.93,18.525,3,20,3s3.491,1.961,4.588,2.837c1.473,1.171,7.281,5.843,8.273,6.645a.374.374,0,0,1,.139.291h0ZM31,16.894l-.954-1.158A.75.75,0,0,0,29,15.628c-1.789,1.437-3.661,2.94-4.41,3.536C23.453,20.07,21.475,22,20,22s-3.491-1.961-4.588-2.837c-.75-.6-2.621-2.1-4.41-3.536a.75.75,0,0,0-1.049.108L9,16.893a.75.75,0,0,0,.109,1.061c1.824,1.466,3.728,2.994,4.433,3.554C14.92,22.61,17.284,25,20,25c2.7,0,5.04-2.357,6.458-3.491.728-.579,2.622-2.1,4.433-3.554A.75.75,0,0,0,31,16.894Z" transform="translate(-4 0)" fill="#efefef"/>
</svg>
