<svg xmlns="http://www.w3.org/2000/svg" width="12.25" height="14" viewBox="0 0 12.25 14">
  <path id="Pfad_28" data-name="Pfad 28" d="M4.047,7.625A.329.329,0,0,0,4.375,7.3V6.2a.329.329,0,0,0-.328-.328H2.953a.329.329,0,0,0-.328.328V7.3a.329.329,0,0,0,.328.328ZM7,7.3V6.2a.329.329,0,0,0-.328-.328H5.578A.329.329,0,0,0,5.25,6.2V7.3a.329.329,0,0,0,.328.328H6.672A.329.329,0,0,0,7,7.3Zm2.625,0V6.2A.329.329,0,0,0,9.3,5.875H8.2a.329.329,0,0,0-.328.328V7.3a.329.329,0,0,0,.328.328H9.3A.329.329,0,0,0,9.625,7.3ZM7,9.922V8.828A.329.329,0,0,0,6.672,8.5H5.578a.329.329,0,0,0-.328.328V9.922a.329.329,0,0,0,.328.328H6.672A.329.329,0,0,0,7,9.922Zm-2.625,0V8.828A.329.329,0,0,0,4.047,8.5H2.953a.329.329,0,0,0-.328.328V9.922a.329.329,0,0,0,.328.328H4.047A.329.329,0,0,0,4.375,9.922Zm5.25,0V8.828A.329.329,0,0,0,9.3,8.5H8.2a.329.329,0,0,0-.328.328V9.922a.329.329,0,0,0,.328.328H9.3A.329.329,0,0,0,9.625,9.922ZM12.25,2.813A1.313,1.313,0,0,0,10.937,1.5H9.625V.078A.329.329,0,0,0,9.3-.25H8.2a.329.329,0,0,0-.328.328V1.5h-3.5V.078A.329.329,0,0,0,4.047-.25H2.953a.329.329,0,0,0-.328.328V1.5H1.312A1.313,1.313,0,0,0,0,2.813v9.625A1.313,1.313,0,0,0,1.312,13.75h9.625a1.313,1.313,0,0,0,1.312-1.312Zm-1.312,9.461a.165.165,0,0,1-.164.164h-9.3a.165.165,0,0,1-.164-.164V4.125h9.625Z" transform="translate(0 0.25)" fill="#6e2596"/>
</svg>
