<svg xmlns="http://www.w3.org/2000/svg" width="36.004" height="28" viewBox="0 0 36.004 28">
  <path id="Pfad_36" data-name="Pfad 36" d="M35.25,24.138A8.606,8.606,0,0,0,38,18c0-5-4.781-9.131-11.012-9.869C25.019,4.531,20.394,2,15,2,7.819,2,2,6.475,2,12a8.628,8.628,0,0,0,2.75,6.137,16.361,16.361,0,0,1-2.356,3.431,1.447,1.447,0,0,0,1.05,2.437,14.366,14.366,0,0,0,7.825-2.425,17.807,17.807,0,0,0,1.775.306C15.006,25.475,19.612,28,25,28a16.546,16.546,0,0,0,3.737-.425A14.4,14.4,0,0,0,36.562,30a1.447,1.447,0,0,0,1.05-2.437A15.929,15.929,0,0,1,35.25,24.138ZM10.7,18.369l-1.069.694A12.72,12.72,0,0,1,6.937,20.4c.169-.294.338-.606.5-.925l.969-1.944L6.856,16A5.73,5.73,0,0,1,5,12C5,8.206,9.581,5,15,5s10,3.206,10,7-4.581,7-10,7a13.622,13.622,0,0,1-3.062-.35ZM33.144,22,31.6,23.525l.969,1.944c.163.319.331.631.5.925a12.717,12.717,0,0,1-2.694-1.337l-1.069-.694-1.244.288A13.622,13.622,0,0,1,25,25a11.629,11.629,0,0,1-8.206-3.106C23.125,21.219,28,17.056,28,12c0-.213-.025-.419-.044-.625C31.981,12.281,35,14.925,35,18A5.73,5.73,0,0,1,33.144,22Z" transform="translate(-2 -2)" fill="#efefef"/>
</svg>
