<svg xmlns="http://www.w3.org/2000/svg" width="23.625" height="23.625" viewBox="0 0 23.625 23.625">
  <path id="Pfad_3024" data-name="Pfad 3024" d="M21.937-21.937H1.682A1.7,1.7,0,0,0,0-20.234V-.016a1.7,1.7,0,0,0,1.682,1.7H21.937a1.7,1.7,0,0,0,1.687-1.7V-20.234A1.7,1.7,0,0,0,21.937-21.937ZM7.14-1.687h-3.5V-12.962H7.145V-1.687ZM5.389-14.5a2.031,2.031,0,0,1-2.03-2.03,2.031,2.031,0,0,1,2.03-2.03,2.035,2.035,0,0,1,2.03,2.03A2.028,2.028,0,0,1,5.389-14.5ZM20.266-1.687h-3.5V-7.172c0-1.308-.026-2.99-1.819-2.99-1.825,0-2.1,1.424-2.1,2.9v5.579h-3.5V-12.962H12.7v1.54h.047a3.688,3.688,0,0,1,3.317-1.819c3.544,0,4.2,2.336,4.2,5.374Z" transform="translate(0 21.938)" fill="#707070"/>
</svg>
