<svg xmlns="http://www.w3.org/2000/svg" width="12.25" height="14" viewBox="0 0 12.25 14">
  <path id="Pfad_29" data-name="Pfad 29" d="M3.5,3.8a.329.329,0,0,0,.328.328H4.922A.329.329,0,0,0,5.25,3.8V2.7a.329.329,0,0,0-.328-.328H3.828A.329.329,0,0,0,3.5,2.7Zm3.828.328H8.422A.329.329,0,0,0,8.75,3.8V2.7a.329.329,0,0,0-.328-.328H7.328A.329.329,0,0,0,7,2.7V3.8A.329.329,0,0,0,7.328,4.125ZM3.828,6.75H4.922a.329.329,0,0,0,.328-.328V5.328A.329.329,0,0,0,4.922,5H3.828a.329.329,0,0,0-.328.328V6.422A.329.329,0,0,0,3.828,6.75Zm3.5,0H8.422a.329.329,0,0,0,.328-.328V5.328A.329.329,0,0,0,8.422,5H7.328A.329.329,0,0,0,7,5.328V6.422A.329.329,0,0,0,7.328,6.75ZM5.25,9.047V7.953a.329.329,0,0,0-.328-.328H3.828a.329.329,0,0,0-.328.328V9.047a.329.329,0,0,0,.328.328H4.922A.329.329,0,0,0,5.25,9.047Zm2.078.328H8.422a.329.329,0,0,0,.328-.328V7.953a.329.329,0,0,0-.328-.328H7.328A.329.329,0,0,0,7,7.953V9.047A.329.329,0,0,0,7.328,9.375Zm4.922,3.391a.329.329,0,0,0-.328-.328h-.533V.406a.655.655,0,0,0-.656-.656H1.518A.655.655,0,0,0,.861.406V12.437H.328A.329.329,0,0,0,0,12.766v.984H12.25ZM2.174,12.41,2.187,1.063l7.889.027V12.41H7V10.578a.329.329,0,0,0-.328-.328H5.578a.329.329,0,0,0-.328.328V12.41Z" transform="translate(0 0.25)" fill="#6e2596"/>
</svg>
