<svg xmlns="http://www.w3.org/2000/svg" width="21.091" height="21.083" viewBox="0 0 21.091 21.083">
  <path id="Pfad_2845" data-name="Pfad 2845" d="M9.479-15.768a4.05,4.05,0,0,0-.472-1.707,6.371,6.371,0,0,0-.9-1.325,7.084,7.084,0,0,0-1.056-.943q-.584-.427-.831-.584a1.524,1.524,0,0,0-.427-.2.654.654,0,0,0-.4-.045,8.628,8.628,0,0,0-1.932.539,5.1,5.1,0,0,0-1.28.719,4.578,4.578,0,0,0-.741.786,3.84,3.84,0,0,0-.382.584.746.746,0,0,0-.067.292.918.918,0,0,0,0,.4A34.5,34.5,0,0,0,3.234-11.9,30.371,30.371,0,0,0,5.795-7.771,19.764,19.764,0,0,0,8.67-4.717a27.626,27.626,0,0,0,2.785,2.156,19.289,19.289,0,0,0,2.673,1.438q1.5.674,2.2.9T18.059.27q.449.135.584.18a.5.5,0,0,0,.225.045.483.483,0,0,0,.27-.09,1.528,1.528,0,0,0,.314-.157,6.469,6.469,0,0,0,.606-.472,4.5,4.5,0,0,0,.764-.831,7.454,7.454,0,0,0,.7-1.28,7.885,7.885,0,0,0,.539-1.8,1.2,1.2,0,0,0-.09-.449q-.045-.09-.157-.27a5.484,5.484,0,0,0-.494-.606,7.332,7.332,0,0,0-.854-.809A7.405,7.405,0,0,0,19.2-7.053a7.812,7.812,0,0,0-1.685-.629.784.784,0,0,0-.674.135,7.83,7.83,0,0,1-3.055,1.932A13.609,13.609,0,0,1,9.3-9.119a8.565,8.565,0,0,1-1.977-3.1,3.366,3.366,0,0,1,.584-1.19A13.684,13.684,0,0,1,9.3-15.229.6.6,0,0,0,9.479-15.768Z" transform="translate(-0.966 20.589)" fill="#23497a"/>
</svg>
