<svg xmlns="http://www.w3.org/2000/svg" width="16.244" height="16.25" viewBox="0 0 16.244 16.25">
  <path id="Pfad_3023" data-name="Pfad 3023" d="M16.25-2.5H3.75V-15h9.219l.781-1.25h-10a1.2,1.2,0,0,0-.879.371A1.2,1.2,0,0,0,2.5-15V-2.5a1.2,1.2,0,0,0,.371.879,1.2,1.2,0,0,0,.879.371h12.5a1.2,1.2,0,0,0,.879-.371A1.2,1.2,0,0,0,17.5-2.5v-8.242L16.25-8.75Zm2.109-14.844a.84.84,0,0,0-.469-.156.86.86,0,0,0-.742.391l-6.8,9.8L7.734-10.312a.883.883,0,0,0-.645-.215.851.851,0,0,0-.605.273.887.887,0,0,0-.234.625.761.761,0,0,0,.273.605L9.688-5.43a.113.113,0,0,0,.039.078l.039.039.078.078h.02a.017.017,0,0,1,.02.02.056.056,0,0,0,.02.039.08.08,0,0,0,.059.02.424.424,0,0,0,.156.078l.039.039A1.148,1.148,0,0,0,10.43-5a.9.9,0,0,0,.664-.273.173.173,0,0,1,.02-.078.063.063,0,0,1,.059-.039l7.422-10.742a.928.928,0,0,0,.137-.664A.77.77,0,0,0,18.359-17.344Z" transform="translate(-2.5 17.5)" fill="#2bb2ea"/>
</svg>
