<svg xmlns="http://www.w3.org/2000/svg" width="12.25" height="12.25" viewBox="0 0 12.25 12.25">
  <path id="Pfad_33" data-name="Pfad 33" d="M8.562,9.454a.327.327,0,0,0,.561.23l2.688-2.7a.325.325,0,0,0,0-.462l-2.688-2.7a.328.328,0,0,0-.561.232ZM16,1.938A1.313,1.313,0,0,0,14.687.625H5.062A1.313,1.313,0,0,0,3.75,1.938v9.625a1.313,1.313,0,0,0,1.312,1.312h9.625A1.313,1.313,0,0,0,16,11.563ZM14.687,11.4a.165.165,0,0,1-.164.164h-9.3a.165.165,0,0,1-.164-.164V2.1a.165.165,0,0,1,.164-.164h9.3a.165.165,0,0,1,.164.164Z" transform="translate(-3.75 -0.625)" fill="#6e2596"/>
</svg>
