<svg xmlns="http://www.w3.org/2000/svg" width="16.781" height="23.953" viewBox="0 0 16.781 23.953">
  <path id="Pfad_2844" data-name="Pfad 2844" d="M11.438,1.078a3.52,3.52,0,0,0,.375.328.609.609,0,0,0,.469,0,1.29,1.29,0,0,0,.375-.328q.281-.281.75-.844t1.711-2.227q1.242-1.664,2.227-3.281a29.2,29.2,0,0,0,1.9-3.773,13.969,13.969,0,0,0,1.1-4.031q.047-.562.047-1.031a8.082,8.082,0,0,0-2.461-5.93A8.082,8.082,0,0,0,12-22.5a8.082,8.082,0,0,0-5.93,2.461,8.082,8.082,0,0,0-2.461,5.93q0,.516.047,1.078A14.107,14.107,0,0,0,4.734-9.07,25.6,25.6,0,0,0,6.727-5.2q1.1,1.734,2.18,3.188t1.8,2.273ZM8.156-17.906A5.238,5.238,0,0,1,12-19.5a5.161,5.161,0,0,1,3.82,1.594,5.25,5.25,0,0,1,1.57,3.82,5.25,5.25,0,0,1-1.57,3.82A5.161,5.161,0,0,1,12-8.672a5.161,5.161,0,0,1-3.82-1.594,5.25,5.25,0,0,1-1.57-3.82A5.291,5.291,0,0,1,8.156-17.906Z" transform="translate(-3.609 22.5)" fill="#23497a"/>
</svg>
