<svg xmlns="http://www.w3.org/2000/svg" width="12.25" height="14" viewBox="0 0 12.25 14">
  <path id="Pfad_30" data-name="Pfad 30" d="M11.922,4.125A.329.329,0,0,0,12.25,3.8V2.7a.329.329,0,0,0-.328-.328h-.547V1.063A1.313,1.313,0,0,0,10.062-.25H1.312A1.313,1.313,0,0,0,0,1.063V12.437A1.313,1.313,0,0,0,1.312,13.75h8.75a1.313,1.313,0,0,0,1.312-1.312V11.125h.547a.329.329,0,0,0,.328-.328V9.7a.329.329,0,0,0-.328-.328h-.547V7.625h.547A.329.329,0,0,0,12.25,7.3V6.2a.329.329,0,0,0-.328-.328h-.547V4.125Zm-1.859,8.312H1.312V1.063h8.75ZM5.687,6.75A1.75,1.75,0,1,0,3.937,5,1.752,1.752,0,0,0,5.687,6.75Zm-2.45,3.5h4.9a.573.573,0,0,0,.613-.525V9.2A1.722,1.722,0,0,0,6.912,7.625a6.6,6.6,0,0,1-1.225.219,6.505,6.505,0,0,1-1.225-.219A1.722,1.722,0,0,0,2.625,9.2v.525A.573.573,0,0,0,3.238,10.25Z" transform="translate(0 0.25)" fill="#6e2596"/>
</svg>
