<svg xmlns="http://www.w3.org/2000/svg" width="23" height="17.25" viewBox="0 0 23 17.25">
  <path id="Pfad_2846" data-name="Pfad 2846" d="M27.953-15.812H7.828a1.381,1.381,0,0,0-1.011.427,1.381,1.381,0,0,0-.427,1.011v2.426l11.5,4.582,11.5-4.582v-2.426a1.381,1.381,0,0,0-.427-1.011A1.381,1.381,0,0,0,27.953-15.812ZM6.39-9.613V0a1.381,1.381,0,0,0,.427,1.011,1.381,1.381,0,0,0,1.011.427H27.953a1.381,1.381,0,0,0,1.011-.427A1.381,1.381,0,0,0,29.39,0V-9.613L17.89-5.031Z" transform="translate(-6.39 15.813)" fill="#23497a"/>
</svg>
