<svg xmlns="http://www.w3.org/2000/svg" width="23.625" height="23.625" viewBox="0 0 23.625 23.625">
  <path id="Pfad_3025" data-name="Pfad 3025" d="M21.094-21.937H2.531A2.532,2.532,0,0,0,0-19.406V-.844A2.532,2.532,0,0,0,2.531,1.687H21.094A2.532,2.532,0,0,0,23.625-.844V-19.406A2.532,2.532,0,0,0,21.094-21.937ZM7.4-6.739H4.946a.355.355,0,0,1-.316-.543l2.6-4.572c.005,0,.005-.005,0-.011L5.574-14.713a.336.336,0,0,1,.316-.533H8.348a.785.785,0,0,1,.68.459L10.71-11.87,8.068-7.219A.775.775,0,0,1,7.4-6.739ZM18.99-18.03,13.569-8.5v.011l3.454,6.275a.338.338,0,0,1-.316.533H14.249a.756.756,0,0,1-.68-.459l-3.48-6.344q.182-.324,5.453-9.613a.757.757,0,0,1,.659-.459h2.473A.337.337,0,0,1,18.99-18.03Z" transform="translate(0 21.938)" fill="#707070"/>
</svg>
