<svg xmlns="http://www.w3.org/2000/svg" width="25" height="25" viewBox="0 0 25 25">
  <path id="Pfad_3202" data-name="Pfad 3202" d="M23.438-18.75H15.625v3.125a1.5,1.5,0,0,1-.464,1.1,1.5,1.5,0,0,1-1.1.464h.781a2.26,2.26,0,0,0,1.66-.684,2.26,2.26,0,0,0,.684-1.66v-.781h6.25V0H1.563V-17.187h6.25v.781a2.26,2.26,0,0,0,.684,1.66,2.26,2.26,0,0,0,1.66.684h.781a1.5,1.5,0,0,1-1.1-.464,1.5,1.5,0,0,1-.464-1.1V-18.75H1.563a1.5,1.5,0,0,0-1.1.464A1.5,1.5,0,0,0,0-17.187V0A1.5,1.5,0,0,0,.464,1.1a1.5,1.5,0,0,0,1.1.464H23.438a1.5,1.5,0,0,0,1.1-.464A1.5,1.5,0,0,0,25,0V-17.187a1.5,1.5,0,0,0-.464-1.1A1.5,1.5,0,0,0,23.438-18.75ZM21.24-7.812H11.719a.76.76,0,0,0-.562.22.76.76,0,0,0-.22.562.76.76,0,0,0,.22.562.76.76,0,0,0,.562.22H21.24a.786.786,0,0,0,.537-.22.722.722,0,0,0,.244-.562.722.722,0,0,0-.244-.562A.786.786,0,0,0,21.24-7.812Zm0,3.125H11.719a.76.76,0,0,0-.562.22.76.76,0,0,0-.22.562.76.76,0,0,0,.22.562.76.76,0,0,0,.562.22H21.24a.786.786,0,0,0,.537-.22.722.722,0,0,0,.244-.562.722.722,0,0,0-.244-.562A.786.786,0,0,0,21.24-4.687ZM11.719-9.375H21.24a.786.786,0,0,0,.537-.22.722.722,0,0,0,.244-.562.722.722,0,0,0-.244-.562.786.786,0,0,0-.537-.22H11.719a.76.76,0,0,0-.562.22.76.76,0,0,0-.22.562.76.76,0,0,0,.22.562A.76.76,0,0,0,11.719-9.375ZM4.883-11.914A1.792,1.792,0,0,0,4.346-10.6a1.753,1.753,0,0,0,.562,1.318A1.875,1.875,0,0,0,6.25-8.74a1.875,1.875,0,0,0,1.343-.537A1.753,1.753,0,0,0,8.154-10.6a1.832,1.832,0,0,0-.562-1.343A1.832,1.832,0,0,0,6.25-12.5,1.874,1.874,0,0,0,4.883-11.914ZM8.447-6.738A2.585,2.585,0,0,0,6.3-7.959a2.659,2.659,0,0,0-2.173,1.2,4.761,4.761,0,0,0-.9,2.954q0,1.074,1.538,1.514a5.493,5.493,0,0,0,3.076,0q1.538-.439,1.538-1.514A4.573,4.573,0,0,0,8.447-6.738Zm.928-8.887a1.5,1.5,0,0,0,.464,1.1,1.5,1.5,0,0,0,1.1.464h3.125a1.5,1.5,0,0,0,1.1-.464,1.5,1.5,0,0,0,.464-1.1v-6.25a1.5,1.5,0,0,0-.464-1.1,1.5,1.5,0,0,0-1.1-.464H10.938a1.5,1.5,0,0,0-1.1.464,1.5,1.5,0,0,0-.464,1.1v6.25Zm4.688,0H10.938v-6.25h3.125Z" transform="translate(0 23.438)" fill="#23497a"/>
</svg>
