<svg xmlns="http://www.w3.org/2000/svg" width="15.75" height="14.002" viewBox="0 0 15.75 14.002">
  <g id="Gruppe_182" data-name="Gruppe 182" transform="translate(-1065 -695)">
    <path id="Pfad_32" data-name="Pfad 32" d="M11,9.181a.215.215,0,0,0-.063.153v3.1H1.312V2.813h6.6a.217.217,0,0,0,.156-.063l.875-.875A.22.22,0,0,0,8.791,1.5H1.312A1.313,1.313,0,0,0,0,2.813v9.625A1.313,1.313,0,0,0,1.312,13.75h9.625a1.313,1.313,0,0,0,1.312-1.312V8.462a.22.22,0,0,0-.375-.156Zm4.282-5.518a1.6,1.6,0,0,0,0-2.264L14.1.218a1.6,1.6,0,0,0-2.261,0L4.657,7.4,4.383,9.87A1.13,1.13,0,0,0,5.63,11.117L8.1,10.843Zm-2.7.845L7.5,9.588l-1.786.2L5.912,8l5.08-5.083Zm1.772-2.179a.291.291,0,0,1,0,.407l-.845.845L11.922,1.992l.845-.845a.286.286,0,0,1,.4,0Z" transform="translate(1065 695.252)" fill="#6e2596"/>
  </g>
</svg>
