<svg xmlns="http://www.w3.org/2000/svg" width="12.25" height="12.25" viewBox="0 0 12.25 12.25">
  <path id="Pfad_31" data-name="Pfad 31" d="M10.937.625H1.312A1.312,1.312,0,0,0,0,1.938v9.625a1.312,1.312,0,0,0,1.312,1.312h9.625a1.312,1.312,0,0,0,1.312-1.312V1.938A1.312,1.312,0,0,0,10.937.625Zm0,10.937H1.312V1.938h9.625Zm-.981-6.61a.328.328,0,0,0,0-.464l-.616-.621a.328.328,0,0,0-.464,0L5.013,7.7,3.378,6.052a.328.328,0,0,0-.464,0l-.621.616a.328.328,0,0,0,0,.464l2.482,2.5a.328.328,0,0,0,.464,0Z" transform="translate(0 -0.625)" fill="#6e2596"/>
</svg>
